<svg height="419pt" viewBox="-3 0 419 419.79693" width="419pt" xmlns="http://www.w3.org/2000/svg"><path d="m412.398438 206c0-113.589844-92.410157-206-206-206-113.589844 0-206 92.414062-206 206s92.410156 206 206 206c23.863281-.007812 47.539062-4.183594 69.96875-12.332031l114.546874 20.039062c2.167969.378907 4.367188-.457031 5.734376-2.179687 1.367187-1.722656 1.683593-4.054688.820312-6.078125l-31.863281-74.925781c30.359375-36.707032 46.917969-82.886719 46.792969-130.523438zm-58.320313 125.601562c-1.472656 1.730469-1.84375 4.144532-.953125 6.238282l28.980469 68.140625-105.257813-18.40625c-.339844-.0625-.6875-.089844-1.03125-.089844-.710937 0-1.417968.125-2.085937.371094-21.542969 8.023437-44.34375 12.132812-67.332031 12.144531-106.972657 0-194-87.027344-194-194s87.027343-194 194-194c106.972656 0 194 87.027344 194 194 .121093 46.066406-16.316407 90.644531-46.320313 125.601562zm0 0"/><path d="m353.738281 132.214844c0-14.855469-11.484375-27.1875-26.304687-28.246094-14.820313-1.058594-27.9375 9.519531-30.042969 24.226562-2.109375 14.707032 7.507813 28.542969 22.03125 31.691407v27.703125c-3.507813-1.199219-7.132813-2.007813-10.816406-2.410156-2.921875-17.335938-17.921875-30.035157-35.5-30.058594h-35.90625v-15.148438c-.007813-7.21875-5.855469-13.066406-13.070313-13.074218h-34.34375v-14.726563c0-3.316406-2.6875-6-6-6s-6 2.683594-6 6v14.726563h-33.75c-7.214844.011718-13.058594 5.855468-13.066406 13.070312v15.148438h-35.910156c-19.871094.023437-35.976563 16.128906-36 36v88.78125c.023437 19.875 16.128906 35.980468 36 36h178.046875c17.578125-.023438 32.578125-12.722657 35.5-30.058594 21.117187-2.300782 38.554687-17.546875 43.652343-38.171875 5.097657-20.621094-3.222656-42.234375-20.839843-54.113281v-33.667969c13.015625-2.835938 22.300781-14.351563 22.320312-27.671875zm-210.769531 7.757812c0-.285156.109375-.558594.3125-.757812.199219-.203125.46875-.316406.753906-.316406h80.09375c.585938 0 1.066406.480468 1.066406 1.070312v15.148438h-82.226562zm130.136719 163.925782h-178.046875c-13.246094-.011719-23.984375-10.75-24-24v-88.777344c.015625-13.246094 10.753906-23.984375 24-24h178.046875c13.246093.015625 23.984375 10.753906 24 24v88.777344c-.015625 13.25-10.753907 23.984374-24 24zm68.632812-68.386719c-.023437 19.011719-13.855469 35.191406-32.632812 38.167969v-76.335938c18.773437 2.980469 32.605469 19.15625 32.632812 38.167969zm-32.632812-103.296875c0-9.011719 7.304687-16.316406 16.316406-16.316406 9.011719.003906 16.316406 7.308593 16.316406 16.320312s-7.304687 16.316406-16.316406 16.316406c-9.007813-.011718-16.308594-7.3125-16.316406-16.320312zm0 0"/><path d="m120.140625 208.308594h-.265625c-11.039062.015625-19.988281 8.960937-20 20v11.914062c0 3.3125 2.6875 6 6 6h28.265625c3.316406 0 6-2.6875 6-6v-11.914062c-.011719-11.039063-8.957031-19.984375-20-20zm8 25.914062h-16.265625v-5.914062c.003906-4.414063 3.582031-7.992188 8-8h.265625c4.417969.007812 7.996094 3.585937 8 8zm0 0"/><path d="m248.289062 208.308594h-.269531c-11.039062.015625-19.984375 8.960937-20 20v11.914062c0 3.3125 2.6875 6 6 6h28.269531c3.3125 0 6-2.6875 6-6v-11.914062c-.011718-11.039063-8.960937-19.984375-20-20zm8 25.914062h-16.269531v-5.914062c.007813-4.414063 3.585938-7.992188 8-8h.269531c4.417969.007812 7.996094 3.585937 8 8zm0 0"/><path d="m212.347656 256.785156h-56.53125c-3.316406 0-6 2.6875-6 6v.269532c.019532 18.769531 15.230469 33.980468 34 34h.53125c18.769532-.019532 33.980469-15.230469 34-34v-.269532c0-3.3125-2.683594-6-6-6zm-28 28.269532h-.53125c-9.941406-.011719-18.640625-6.675782-21.246094-16.269532h43.023438c-2.605469 9.59375-11.304688 16.257813-21.246094 16.269532zm0 0"/></svg>